<svg aria-hidden="true" style="position: absolute; width: 0; height: 0; overflow: hidden;" version="1.1" xmlns="http://www.w3.org/2000/svg" xmlns:xlink="http://www.w3.org/1999/xlink">
<defs>

<symbol id="icon-close" viewBox="0 0 32 32">
<path fill="#5685ff" style="fill: var(--color1, #5685ff)" d="M25.333 8.546l-1.88-1.88-7.453 7.453-7.453-7.453-1.88 1.88 7.453 7.453-7.453 7.453 1.88 1.88 7.453-7.453 7.453 7.453 1.88-1.88-7.453-7.453 7.453-7.453z"></path>
</symbol>

<symbol id="icon-menu" viewBox="0 0 32 32">
<path fill="#5685ff" style="fill: var(--color1, #5685ff)" d="M4 24h24v-2.667h-24v2.667zM4 17.333h24v-2.667h-24v2.667zM4 8v2.667h24v-2.667h-24z"></path>
</symbol>

<symbol id="icon-scoreboard" viewBox="0 0 30 32">
<path fill="#5685ff" style="fill: var(--color1, #5685ff)" opacity="0.3" d="M14.185 9.097h-9.105v15.238h20.317v-15.238h-11.213zM9.944 20.525l-3.594-3.594 1.79-1.79 1.79 1.79 4.495-4.495 1.79 1.79-6.273 6.298zM24.128 18.735l-1.79 1.79-2.019-2.019-2.019 2.019-1.79-1.79 2.019-2.019-2.019-2.019 1.79-1.79 2.019 2.019 2.019-2.019 1.79 1.79-2.019 2.019 2.019 2.019z"></path>
<path fill="#255ced" style="fill: var(--color2, #255ced)" d="M9.942 20.525l-3.594-3.594 1.79-1.791 1.79 1.791 4.495-4.495 1.79 1.79-6.273 6.298zM22.107 16.715l2.019 2.019-1.79 1.79-2.019-2.019-2.019 2.019-1.79-1.79 2.019-2.019-2.019-2.019 1.79-1.79 2.019 2.019 2.019-2.019 1.79 1.79-2.019 2.019zM25.396 6.557h-20.317c-1.397 0-2.527 1.143-2.527 2.54l-0.013 15.238c0 1.397 1.143 2.54 2.54 2.54h20.317c1.397 0 2.54-1.143 2.54-2.54v-15.238c0-1.397-1.143-2.54-2.54-2.54zM25.396 24.334h-20.317v-15.238h20.317v15.238z"></path>
</symbol>

<symbol id="icon-calendar" viewBox="0 0 31 32">
<path fill="#255ced" style="fill: var(--color2, #255ced)" d="M24.32 5.76h-1.28v-2.56h-2.56v2.56h-10.24v-2.56h-2.56v2.56h-1.28c-1.421 0-2.547 1.152-2.547 2.56l-0.013 17.92c0 1.408 1.139 2.56 2.56 2.56h17.92c1.408 0 2.56-1.152 2.56-2.56v-17.92c0-1.408-1.152-2.56-2.56-2.56zM24.32 26.24h-17.92v-12.8h17.92v12.8zM24.32 10.88h-17.92v-2.56h17.92v2.56z"></path>
<path fill="#5685ff" style="fill: var(--color1, #5685ff)" opacity="0.3" d="M24.32 10.88h-17.92v-2.56h17.92v2.56z"></path>
<path fill="#255ced" style="fill: var(--color2, #255ced)" d="M11.853 23.564c-0.676-0.002-1.261-0.159-1.753-0.469s-0.871-0.758-1.138-1.342c-0.267-0.584-0.399-1.285-0.396-2.102 0.002-0.819 0.136-1.515 0.4-2.087 0.267-0.572 0.645-1.007 1.135-1.305 0.492-0.298 1.076-0.447 1.753-0.447s1.261 0.15 1.753 0.451c0.492 0.298 0.872 0.733 1.138 1.305s0.399 1.267 0.396 2.084c0 0.822-0.133 1.525-0.4 2.109s-0.646 1.032-1.138 1.342c-0.49 0.308-1.073 0.462-1.749 0.462zM11.853 21.92c0.349 0 0.635-0.182 0.858-0.545 0.225-0.366 0.337-0.941 0.335-1.724 0-0.512-0.051-0.93-0.153-1.255s-0.242-0.565-0.422-0.72c-0.179-0.158-0.385-0.236-0.618-0.236-0.349 0-0.634 0.177-0.855 0.531s-0.333 0.914-0.338 1.68c-0.002 0.521 0.047 0.95 0.149 1.287 0.102 0.334 0.242 0.582 0.422 0.742 0.182 0.16 0.389 0.24 0.622 0.24zM18.999 15.811c0.434 0 0.845 0.069 1.233 0.207 0.388 0.136 0.731 0.35 1.029 0.644 0.301 0.293 0.536 0.676 0.706 1.149 0.172 0.47 0.259 1.040 0.262 1.709 0.002 0.611-0.074 1.16-0.229 1.647-0.153 0.485-0.372 0.898-0.658 1.24-0.284 0.342-0.625 0.604-1.025 0.785-0.398 0.179-0.841 0.269-1.331 0.269-0.55 0-1.034-0.105-1.451-0.316s-0.749-0.495-0.996-0.851c-0.247-0.356-0.392-0.753-0.433-1.189h1.993c0.049 0.226 0.155 0.389 0.32 0.491 0.165 0.099 0.354 0.149 0.567 0.149 0.427 0 0.738-0.184 0.935-0.553 0.199-0.371 0.299-0.865 0.302-1.484h-0.044c-0.094 0.228-0.238 0.423-0.429 0.585s-0.415 0.287-0.669 0.375c-0.255 0.087-0.524 0.131-0.807 0.131-0.448 0-0.841-0.101-1.178-0.302-0.337-0.204-0.6-0.481-0.789-0.833-0.189-0.354-0.285-0.756-0.287-1.207-0.002-0.529 0.122-0.992 0.375-1.389s0.602-0.707 1.051-0.927c0.448-0.221 0.967-0.331 1.556-0.331zM19.013 17.338c-0.201 0-0.381 0.046-0.538 0.138-0.155 0.092-0.278 0.217-0.367 0.375-0.087 0.158-0.13 0.336-0.127 0.535s0.047 0.377 0.135 0.535c0.090 0.158 0.211 0.282 0.364 0.375 0.155 0.092 0.333 0.138 0.535 0.138 0.148 0 0.285-0.025 0.411-0.076 0.126-0.053 0.235-0.127 0.327-0.222 0.094-0.097 0.167-0.209 0.218-0.335 0.053-0.128 0.079-0.267 0.076-0.415-0.002-0.199-0.049-0.377-0.138-0.535s-0.212-0.282-0.367-0.375c-0.155-0.092-0.331-0.138-0.527-0.138z"></path>
</symbol>

<symbol id="icon-right-arrow" viewBox="0 0 32 32">
<path  fill="currentColor" d="M20 6.667l-1.88 1.88 6.107 6.12h-21.56v2.667h21.56l-6.12 6.12 1.893 1.88 9.333-9.333-9.333-9.333z"></path>
</symbol>

<symbol id="icon-slash" viewBox="0 0 26 32">
<path fill="#fd6230" style="fill: var(--color3, #fd6230)" d="M9.692 32c1.312 0 1.967 0 2.475-0.344s0.751-0.953 1.239-2.171l9.6-24c0.994-2.485 1.491-3.728 0.896-4.607s-1.933-0.879-4.61-0.879h-4.184c-1.312 0-1.967 0-2.475 0.344s-0.751 0.953-1.239 2.171l-9.6 24c-0.994 2.485-1.491 3.728-0.896 4.607s1.933 0.879 4.61 0.879h4.184z"></path>
</symbol>

<symbol id="icon-planet" viewBox="0 0 32 32">
<path fill="currentColor" d="M16 2.667c-7.36 0-13.333 5.973-13.333 13.333s5.973 13.333 13.333 13.333c7.36 0 13.333-5.973 13.333-13.333s-5.973-13.333-13.333-13.333zM5.333 16c0-0.813 0.107-1.613 0.28-2.373l6.373 6.373v1.333c0 1.467 1.2 2.667 2.667 2.667v2.573c-5.24-0.667-9.32-5.147-9.32-10.573zM23.853 23.2c-0.347-1.080-1.333-1.867-2.533-1.867h-1.333v-4c0-0.733-0.6-1.333-1.333-1.333h-8v-2.667h2.667c0.733 0 1.333-0.6 1.333-1.333v-2.667h2.667c1.467 0 2.667-1.2 2.667-2.667v-0.547c3.907 1.573 6.68 5.413 6.68 9.88 0 2.773-1.080 5.307-2.813 7.2z"></path>
</symbol>

<symbol id="icon-dropdown" viewBox="0 0 32 32">
<path fill="currentColor" d="M12.876 21.522l-0.001 0.001 3.771 3.771 11.314-11.314-3.771-3.771-7.542 7.542-7.543-7.543-3.771 3.771 7.543 7.543z"></path>
</symbol>

<symbol id="icon-logo" viewBox="0 0 190 32">
<path fill="#212121" style="fill: var(--color4, #212121)" d="M41.058 25.182l3.812-22.964h9.912c1.704 0 3.143 0.31 4.317 0.931s2.018 1.514 2.534 2.68c0.516 1.166 0.639 2.564 0.37 4.194-0.269 1.645-0.863 3.031-1.783 4.16-0.912 1.121-2.074 1.974-3.487 2.557-1.405 0.576-2.983 0.863-4.732 0.863h-5.92l0.807-4.844h4.665c0.733 0 1.375-0.090 1.929-0.269 0.553-0.187 1.002-0.478 1.346-0.875 0.344-0.404 0.568-0.934 0.673-1.592s0.052-1.192-0.157-1.603c-0.209-0.419-0.557-0.725-1.043-0.919-0.486-0.202-1.088-0.303-1.805-0.303h-2.198l-3.005 17.986h-6.234zM56.263 14.642l3.992 10.54h-6.773l-3.857-10.54h6.638z"></path>
<path fill="#212121" style="fill: var(--color4, #212121)" d="M65.408 25.451c-1.091 0-2.030-0.179-2.815-0.538-0.778-0.366-1.346-0.92-1.704-1.66-0.351-0.748-0.43-1.689-0.236-2.826 0.157-0.942 0.452-1.745 0.886-2.411s0.972-1.211 1.615-1.637c0.643-0.426 1.364-0.751 2.164-0.976 0.807-0.232 1.66-0.381 2.557-0.449 0.972-0.075 1.76-0.168 2.366-0.28s1.058-0.265 1.357-0.46c0.299-0.194 0.478-0.456 0.538-0.785v-0.045c0.067-0.448-0.052-0.792-0.359-1.032-0.299-0.239-0.718-0.359-1.256-0.359-0.583 0-1.088 0.127-1.514 0.381-0.419 0.254-0.706 0.65-0.863 1.189h-5.696c0.239-1.046 0.729-2.011 1.469-2.893 0.748-0.89 1.738-1.6 2.972-2.13 1.241-0.538 2.721-0.807 4.44-0.807 1.226 0 2.302 0.146 3.229 0.437 0.927 0.284 1.693 0.684 2.299 1.2 0.613 0.508 1.043 1.106 1.29 1.794 0.254 0.68 0.314 1.42 0.179 2.22l-1.974 11.796h-5.786l0.404-2.422h-0.135c-0.449 0.643-0.953 1.162-1.514 1.559-0.553 0.396-1.159 0.684-1.816 0.863-0.65 0.179-1.349 0.269-2.097 0.269zM68.099 21.549c0.463 0 0.919-0.097 1.368-0.292s0.834-0.475 1.155-0.841c0.321-0.366 0.527-0.811 0.617-1.334l0.224-1.435c-0.164 0.067-0.348 0.131-0.549 0.191-0.194 0.052-0.4 0.105-0.617 0.157-0.209 0.052-0.433 0.101-0.673 0.146-0.232 0.045-0.471 0.090-0.718 0.134-0.493 0.075-0.908 0.198-1.245 0.37-0.336 0.164-0.598 0.37-0.785 0.617-0.187 0.239-0.303 0.508-0.348 0.807-0.067 0.471 0.041 0.837 0.325 1.099 0.292 0.254 0.707 0.381 1.245 0.381z"></path>
<path fill="#212121" style="fill: var(--color4, #212121)" d="M91.503 7.959l-0.763 4.485h-11.348l0.762-4.485h11.348zM83.026 3.832h6.19l-2.624 15.81c-0.037 0.239-0.030 0.441 0.022 0.605 0.052 0.157 0.157 0.277 0.314 0.359 0.164 0.075 0.381 0.112 0.65 0.112 0.179 0 0.4-0.022 0.662-0.067 0.262-0.052 0.46-0.090 0.594-0.112l0.179 4.351c-0.314 0.090-0.736 0.191-1.267 0.303-0.523 0.12-1.133 0.198-1.828 0.236-1.45 0.067-2.631-0.086-3.543-0.46-0.905-0.374-1.532-0.957-1.884-1.749-0.344-0.8-0.404-1.798-0.179-2.994l2.714-16.393z"></path>
<path fill="#212121" style="fill: var(--color4, #212121)" d="M90.527 25.182l2.87-17.223h6.19l-2.87 17.223h-6.19zM96.762 6.165c-0.837 0-1.514-0.277-2.030-0.83-0.516-0.561-0.706-1.226-0.572-1.996 0.135-0.785 0.546-1.45 1.234-1.996 0.688-0.553 1.45-0.83 2.287-0.83 0.845 0 1.517 0.277 2.018 0.83 0.501 0.546 0.688 1.211 0.561 1.996-0.12 0.77-0.523 1.435-1.211 1.996-0.68 0.553-1.443 0.83-2.287 0.83z"></path>
<path fill="#212121" style="fill: var(--color4, #212121)" d="M106.772 15.494l-1.615 9.688h-6.19l2.871-17.223h5.876l-0.538 3.274h0.179c0.546-1.099 1.342-1.955 2.388-2.568 1.054-0.62 2.216-0.931 3.487-0.931 1.218 0 2.232 0.277 3.039 0.83s1.379 1.316 1.715 2.287c0.336 0.972 0.397 2.086 0.179 3.341l-1.839 10.989h-6.19l1.615-9.688c0.142-0.852 0.037-1.521-0.314-2.007-0.344-0.486-0.912-0.729-1.704-0.729-0.501 0-0.961 0.112-1.379 0.336-0.411 0.217-0.755 0.531-1.032 0.942-0.269 0.404-0.452 0.89-0.549 1.458z"></path>
<path fill="#212121" style="fill: var(--color4, #212121)" d="M125.295 32c-1.735 0-3.177-0.247-4.328-0.74-1.144-0.486-1.989-1.159-2.535-2.018-0.538-0.852-0.762-1.832-0.672-2.938h5.965c0.015 0.374 0.123 0.673 0.326 0.897 0.201 0.224 0.482 0.385 0.841 0.482s0.777 0.146 1.255 0.146c0.808 0 1.506-0.198 2.097-0.594 0.591-0.389 0.953-1.088 1.088-2.097l0.494-2.915h-0.179c-0.314 0.583-0.737 1.080-1.267 1.491-0.53 0.404-1.141 0.714-1.827 0.931-0.688 0.209-1.421 0.314-2.198 0.314-1.226 0-2.306-0.284-3.241-0.852-0.927-0.568-1.6-1.469-2.018-2.702-0.411-1.233-0.453-2.844-0.123-4.833 0.344-2.078 0.95-3.768 1.817-5.068 0.866-1.301 1.865-2.254 2.993-2.859 1.129-0.605 2.262-0.908 3.398-0.908 0.853 0 1.574 0.149 2.165 0.449 0.59 0.292 1.062 0.684 1.413 1.177 0.351 0.486 0.594 1.020 0.729 1.603h0.134l0.494-3.005h6.19l-2.871 17.178c-0.224 1.465-0.795 2.706-1.715 3.723-0.912 1.024-2.093 1.802-3.543 2.332-1.443 0.538-3.069 0.807-4.878 0.807zM127.358 20.562c0.568 0 1.085-0.157 1.547-0.471 0.464-0.322 0.856-0.777 1.177-1.368 0.322-0.598 0.55-1.316 0.685-2.153 0.134-0.852 0.142-1.581 0.022-2.187-0.119-0.613-0.354-1.080-0.706-1.402-0.351-0.329-0.81-0.493-1.379-0.493-0.568 0-1.080 0.164-1.536 0.493-0.456 0.322-0.841 0.789-1.154 1.402-0.314 0.606-0.538 1.334-0.673 2.187s-0.146 1.577-0.033 2.175c0.112 0.59 0.339 1.043 0.683 1.357 0.344 0.306 0.8 0.46 1.368 0.46z"></path>
<path fill="#212121" style="fill: var(--color4, #212121)" d="M138.489 25.182l3.813-22.964h9.958c1.749 0 3.181 0.235 4.295 0.706 1.121 0.471 1.913 1.136 2.377 1.996 0.471 0.86 0.609 1.873 0.415 3.039-0.15 0.837-0.471 1.603-0.965 2.299-0.486 0.688-1.103 1.271-1.85 1.749-0.741 0.471-1.566 0.796-2.478 0.976l-0.046 0.224c0.987 0.030 1.847 0.277 2.579 0.74 0.733 0.456 1.271 1.091 1.615 1.906 0.344 0.807 0.426 1.749 0.247 2.826-0.209 1.256-0.722 2.373-1.536 3.353-0.815 0.979-1.873 1.749-3.174 2.31s-2.781 0.841-4.44 0.841h-10.81zM145.576 20.204h2.915c1.032 0 1.842-0.198 2.433-0.594 0.598-0.396 0.953-0.976 1.065-1.738 0.090-0.538 0.046-0.994-0.134-1.368s-0.482-0.658-0.909-0.852c-0.426-0.194-0.961-0.292-1.603-0.292h-3.006l-0.762 4.844zM147.011 11.502h2.557c0.538 0 1.032-0.086 1.48-0.258 0.449-0.172 0.818-0.422 1.11-0.751 0.293-0.329 0.475-0.725 0.55-1.189 0.112-0.718-0.059-1.263-0.515-1.637-0.449-0.374-1.054-0.561-1.817-0.561h-2.646l-0.718 4.395z"></path>
<path fill="#212121" style="fill: var(--color4, #212121)" d="M166.616 25.496c-1.839 0-3.363-0.351-4.575-1.054-1.211-0.71-2.063-1.727-2.557-3.050-0.494-1.331-0.583-2.923-0.27-4.777 0.299-1.779 0.917-3.334 1.85-4.665 0.942-1.331 2.127-2.366 3.554-3.106 1.435-0.74 3.043-1.11 4.822-1.11 1.302 0 2.441 0.202 3.421 0.606 0.986 0.404 1.79 0.99 2.41 1.76s1.040 1.701 1.256 2.792c0.224 1.084 0.224 2.31 0 3.678l-0.224 1.435h-15.384l0.538-3.409h9.688c0.074-0.493 0.026-0.927-0.146-1.301-0.165-0.381-0.43-0.676-0.795-0.886-0.359-0.217-0.793-0.325-1.302-0.325-0.507 0-0.986 0.108-1.434 0.325-0.441 0.217-0.819 0.52-1.133 0.908-0.307 0.389-0.512 0.845-0.617 1.368l-0.673 3.588c-0.089 0.553-0.056 1.046 0.102 1.48 0.157 0.434 0.43 0.774 0.818 1.020s0.889 0.37 1.503 0.37c0.418 0 0.815-0.056 1.189-0.168 0.381-0.12 0.718-0.292 1.009-0.516 0.298-0.232 0.538-0.512 0.718-0.841h5.651c-0.405 1.196-1.043 2.235-1.918 3.117-0.867 0.875-1.936 1.555-3.207 2.041-1.264 0.478-2.695 0.718-4.295 0.718z"></path>
<path fill="#212121" style="fill: var(--color4, #212121)" d="M189.182 7.959l-0.762 4.485h-11.347l0.762-4.485h11.347zM180.704 3.832h6.19l-2.623 15.81c-0.038 0.239-0.031 0.441 0.022 0.605 0.053 0.157 0.158 0.277 0.314 0.359 0.165 0.075 0.381 0.112 0.65 0.112 0.179 0 0.4-0.022 0.662-0.067 0.262-0.052 0.459-0.090 0.594-0.112l0.179 4.351c-0.314 0.090-0.736 0.191-1.267 0.303-0.523 0.12-1.133 0.198-1.827 0.236-1.45 0.067-2.632-0.086-3.544-0.46-0.904-0.374-1.531-0.957-1.883-1.749-0.344-0.8-0.403-1.798-0.179-2.994l2.713-16.393z"></path>
<path fill="#fd6230" style="fill: var(--color3, #fd6230)" d="M26.295 3.476c0.29-1.639 0.436-2.458 1.047-2.967s1.451-0.509 3.13-0.509h2.374c1.679 0 2.518 0 2.95 0.509s0.286 1.329-0.004 2.967l-3.388 19.121c-0.29 1.639-0.436 2.458-1.047 2.967s-1.451 0.509-3.13 0.509h-2.374c-1.679 0-2.518 0-2.95-0.509s-0.286-1.328 0.004-2.967l3.388-19.121z"></path>
<path fill="#5685ff" style="fill: var(--color1, #5685ff)" d="M14.661 9.259c0.29-1.639 0.436-2.458 1.047-2.967s1.451-0.509 3.13-0.509h2.374c1.679 0 2.518 0 2.95 0.509s0.286 1.329-0.004 2.967l-2.361 13.326c-0.29 1.639-0.436 2.458-1.047 2.967s-1.451 0.509-3.13 0.509h-2.374c-1.679 0-2.518 0-2.95-0.509s-0.286-1.329 0.004-2.967l2.361-13.326z"></path>
<path fill="#5685ff" style="fill: var(--color1, #5685ff)" d="M3.027 15.041c0.29-1.639 0.436-2.458 1.047-2.967s1.451-0.509 3.13-0.509h2.374c1.679 0 2.518 0 2.95 0.509s0.286 1.329-0.004 2.967l-1.335 7.532c-0.29 1.639-0.436 2.458-1.047 2.967s-1.451 0.509-3.13 0.509h-2.374c-1.679 0-2.518 0-2.95-0.509s-0.286-1.329 0.004-2.967l1.335-7.532z"></path>
<path fill="#000" style="fill: var(--color5, #000)" opacity="0.2" d="M36.446-2.871c0 14.412-11.683 26.096-26.096 26.096s-26.096-11.684-26.096-26.096c0-14.412 11.683-26.096 26.096-26.096s26.096 11.684 26.096 26.096z"></path>
</symbol>

<symbol id="iconGroup-5234" viewBox="0 0 190 32">
<path fill="#212121" style="fill: var(--color1, #212121)" d="M41.058 25.182l3.812-22.964h9.912c1.704 0 3.143 0.31 4.317 0.931s2.018 1.514 2.534 2.68c0.516 1.166 0.639 2.564 0.37 4.194-0.269 1.645-0.863 3.031-1.783 4.16-0.912 1.121-2.074 1.974-3.487 2.557-1.405 0.576-2.983 0.863-4.732 0.863h-5.92l0.807-4.844h4.665c0.733 0 1.375-0.090 1.929-0.269 0.553-0.187 1.002-0.478 1.346-0.875 0.344-0.404 0.568-0.934 0.673-1.592s0.052-1.192-0.157-1.603c-0.209-0.419-0.557-0.725-1.043-0.919-0.486-0.202-1.088-0.303-1.805-0.303h-2.198l-3.005 17.986h-6.234zM56.263 14.642l3.992 10.54h-6.773l-3.857-10.54h6.638z"></path>
<path fill="#212121" style="fill: var(--color1, #212121)" d="M65.408 25.451c-1.091 0-2.030-0.179-2.815-0.538-0.778-0.366-1.346-0.92-1.704-1.66-0.351-0.748-0.43-1.689-0.236-2.826 0.157-0.942 0.452-1.745 0.886-2.411s0.972-1.211 1.615-1.637c0.643-0.426 1.364-0.751 2.164-0.976 0.807-0.232 1.66-0.381 2.557-0.449 0.972-0.075 1.76-0.168 2.366-0.28s1.058-0.265 1.357-0.46c0.299-0.194 0.478-0.456 0.538-0.785v-0.045c0.067-0.448-0.052-0.792-0.359-1.032-0.299-0.239-0.718-0.359-1.256-0.359-0.583 0-1.088 0.127-1.514 0.381-0.419 0.254-0.706 0.65-0.863 1.189h-5.696c0.239-1.046 0.729-2.011 1.469-2.893 0.748-0.89 1.738-1.6 2.972-2.13 1.241-0.538 2.721-0.807 4.44-0.807 1.226 0 2.302 0.146 3.229 0.437 0.927 0.284 1.693 0.684 2.299 1.2 0.613 0.508 1.043 1.106 1.29 1.794 0.254 0.68 0.314 1.42 0.179 2.22l-1.974 11.796h-5.786l0.404-2.422h-0.135c-0.449 0.643-0.953 1.162-1.514 1.559-0.553 0.396-1.159 0.684-1.816 0.863-0.65 0.179-1.349 0.269-2.097 0.269zM68.099 21.549c0.463 0 0.919-0.097 1.368-0.292s0.834-0.475 1.155-0.841c0.321-0.366 0.527-0.811 0.617-1.334l0.224-1.435c-0.164 0.067-0.348 0.131-0.549 0.191-0.194 0.052-0.4 0.105-0.617 0.157-0.209 0.052-0.433 0.101-0.673 0.146-0.232 0.045-0.471 0.090-0.718 0.134-0.493 0.075-0.908 0.198-1.245 0.37-0.336 0.164-0.598 0.37-0.785 0.617-0.187 0.239-0.303 0.508-0.348 0.807-0.067 0.471 0.041 0.837 0.325 1.099 0.292 0.254 0.707 0.381 1.245 0.381z"></path>
<path fill="#212121" style="fill: var(--color1, #212121)" d="M91.503 7.959l-0.763 4.485h-11.348l0.762-4.485h11.348zM83.026 3.832h6.19l-2.624 15.81c-0.037 0.239-0.030 0.441 0.022 0.605 0.052 0.157 0.157 0.277 0.314 0.359 0.164 0.075 0.381 0.112 0.65 0.112 0.179 0 0.4-0.022 0.662-0.067 0.262-0.052 0.46-0.090 0.594-0.112l0.179 4.351c-0.314 0.090-0.736 0.191-1.267 0.303-0.523 0.12-1.133 0.198-1.828 0.236-1.45 0.067-2.631-0.086-3.543-0.46-0.905-0.374-1.532-0.957-1.884-1.749-0.344-0.8-0.404-1.798-0.179-2.994l2.714-16.393z"></path>
<path fill="#212121" style="fill: var(--color1, #212121)" d="M90.527 25.182l2.87-17.223h6.19l-2.87 17.223h-6.19zM96.762 6.165c-0.837 0-1.514-0.277-2.030-0.83-0.516-0.561-0.706-1.226-0.572-1.996 0.135-0.785 0.546-1.45 1.234-1.996 0.688-0.553 1.45-0.83 2.287-0.83 0.845 0 1.517 0.277 2.018 0.83 0.501 0.546 0.688 1.211 0.561 1.996-0.12 0.77-0.523 1.435-1.211 1.996-0.68 0.553-1.443 0.83-2.287 0.83z"></path>
<path fill="#212121" style="fill: var(--color1, #212121)" d="M106.772 15.494l-1.615 9.688h-6.19l2.871-17.223h5.876l-0.538 3.274h0.179c0.546-1.099 1.342-1.955 2.388-2.568 1.054-0.62 2.216-0.931 3.487-0.931 1.218 0 2.232 0.277 3.039 0.83s1.379 1.316 1.715 2.287c0.336 0.972 0.397 2.086 0.179 3.341l-1.839 10.989h-6.19l1.615-9.688c0.142-0.852 0.037-1.521-0.314-2.007-0.344-0.486-0.912-0.729-1.704-0.729-0.501 0-0.961 0.112-1.379 0.336-0.411 0.217-0.755 0.531-1.032 0.942-0.269 0.404-0.452 0.89-0.549 1.458z"></path>
<path fill="#212121" style="fill: var(--color1, #212121)" d="M125.295 32c-1.735 0-3.177-0.247-4.328-0.74-1.144-0.486-1.989-1.159-2.535-2.018-0.538-0.852-0.762-1.832-0.672-2.938h5.965c0.015 0.374 0.123 0.673 0.326 0.897 0.201 0.224 0.482 0.385 0.841 0.482s0.777 0.146 1.255 0.146c0.808 0 1.506-0.198 2.097-0.594 0.591-0.389 0.953-1.088 1.088-2.097l0.494-2.915h-0.179c-0.314 0.583-0.737 1.080-1.267 1.491-0.53 0.404-1.141 0.714-1.827 0.931-0.688 0.209-1.421 0.314-2.198 0.314-1.226 0-2.306-0.284-3.241-0.852-0.927-0.568-1.6-1.469-2.018-2.702-0.411-1.233-0.453-2.844-0.123-4.833 0.344-2.078 0.95-3.768 1.817-5.068 0.866-1.301 1.865-2.254 2.993-2.859 1.129-0.605 2.262-0.908 3.398-0.908 0.853 0 1.574 0.149 2.165 0.449 0.59 0.292 1.062 0.684 1.413 1.177 0.351 0.486 0.594 1.020 0.729 1.603h0.134l0.494-3.005h6.19l-2.871 17.178c-0.224 1.465-0.795 2.706-1.715 3.723-0.912 1.024-2.093 1.802-3.543 2.332-1.443 0.538-3.069 0.807-4.878 0.807zM127.358 20.562c0.568 0 1.085-0.157 1.547-0.471 0.464-0.322 0.856-0.777 1.177-1.368 0.322-0.598 0.55-1.316 0.685-2.153 0.134-0.852 0.142-1.581 0.022-2.187-0.119-0.613-0.354-1.080-0.706-1.402-0.351-0.329-0.81-0.493-1.379-0.493-0.568 0-1.080 0.164-1.536 0.493-0.456 0.322-0.841 0.789-1.154 1.402-0.314 0.606-0.538 1.334-0.673 2.187s-0.146 1.577-0.033 2.175c0.112 0.59 0.339 1.043 0.683 1.357 0.344 0.306 0.8 0.46 1.368 0.46z"></path>
<path fill="#212121" style="fill: var(--color1, #212121)" d="M138.489 25.182l3.813-22.964h9.958c1.749 0 3.181 0.235 4.295 0.706 1.121 0.471 1.913 1.136 2.377 1.996 0.471 0.86 0.609 1.873 0.415 3.039-0.15 0.837-0.471 1.603-0.965 2.299-0.486 0.688-1.103 1.271-1.85 1.749-0.741 0.471-1.566 0.796-2.478 0.976l-0.046 0.224c0.987 0.030 1.847 0.277 2.579 0.74 0.733 0.456 1.271 1.091 1.615 1.906 0.344 0.807 0.426 1.749 0.247 2.826-0.209 1.256-0.722 2.373-1.536 3.353-0.815 0.979-1.873 1.749-3.174 2.31s-2.781 0.841-4.44 0.841h-10.81zM145.576 20.204h2.915c1.032 0 1.842-0.198 2.433-0.594 0.598-0.396 0.953-0.976 1.065-1.738 0.090-0.538 0.046-0.994-0.134-1.368s-0.482-0.658-0.909-0.852c-0.426-0.194-0.961-0.292-1.603-0.292h-3.006l-0.762 4.844zM147.011 11.502h2.557c0.538 0 1.032-0.086 1.48-0.258 0.449-0.172 0.818-0.422 1.11-0.751 0.293-0.329 0.475-0.725 0.55-1.189 0.112-0.718-0.059-1.263-0.515-1.637-0.449-0.374-1.054-0.561-1.817-0.561h-2.646l-0.718 4.395z"></path>
<path fill="#212121" style="fill: var(--color1, #212121)" d="M166.616 25.496c-1.839 0-3.363-0.351-4.575-1.054-1.211-0.71-2.063-1.727-2.557-3.050-0.494-1.331-0.583-2.923-0.27-4.777 0.299-1.779 0.917-3.334 1.85-4.665 0.942-1.331 2.127-2.366 3.554-3.106 1.435-0.74 3.043-1.11 4.822-1.11 1.302 0 2.441 0.202 3.421 0.606 0.986 0.404 1.79 0.99 2.41 1.76s1.040 1.701 1.256 2.792c0.224 1.084 0.224 2.31 0 3.678l-0.224 1.435h-15.384l0.538-3.409h9.688c0.074-0.493 0.026-0.927-0.146-1.301-0.165-0.381-0.43-0.676-0.795-0.886-0.359-0.217-0.793-0.325-1.302-0.325-0.507 0-0.986 0.108-1.434 0.325-0.441 0.217-0.819 0.52-1.133 0.908-0.307 0.389-0.512 0.845-0.617 1.368l-0.673 3.588c-0.089 0.553-0.056 1.046 0.102 1.48 0.157 0.434 0.43 0.774 0.818 1.020s0.889 0.37 1.503 0.37c0.418 0 0.815-0.056 1.189-0.168 0.381-0.12 0.718-0.292 1.009-0.516 0.298-0.232 0.538-0.512 0.718-0.841h5.651c-0.405 1.196-1.043 2.235-1.918 3.117-0.867 0.875-1.936 1.555-3.207 2.041-1.264 0.478-2.695 0.718-4.295 0.718z"></path>
<path fill="#212121" style="fill: var(--color1, #212121)" d="M189.182 7.959l-0.762 4.485h-11.347l0.762-4.485h11.347zM180.704 3.832h6.19l-2.623 15.81c-0.038 0.239-0.031 0.441 0.022 0.605 0.053 0.157 0.158 0.277 0.314 0.359 0.165 0.075 0.381 0.112 0.65 0.112 0.179 0 0.4-0.022 0.662-0.067 0.262-0.052 0.459-0.090 0.594-0.112l0.179 4.351c-0.314 0.090-0.736 0.191-1.267 0.303-0.523 0.12-1.133 0.198-1.827 0.236-1.45 0.067-2.632-0.086-3.544-0.46-0.904-0.374-1.531-0.957-1.883-1.749-0.344-0.8-0.403-1.798-0.179-2.994l2.713-16.393z"></path>
<path fill="#fd6230" style="fill: var(--color2, #fd6230)" d="M26.295 3.476c0.29-1.639 0.436-2.458 1.047-2.967s1.451-0.509 3.13-0.509h2.374c1.679 0 2.518 0 2.95 0.509s0.286 1.329-0.004 2.967l-3.388 19.121c-0.29 1.639-0.436 2.458-1.047 2.967s-1.451 0.509-3.13 0.509h-2.374c-1.679 0-2.518 0-2.95-0.509s-0.286-1.328 0.004-2.967l3.388-19.121z"></path>
<path fill="#5685ff" style="fill: var(--color3, #5685ff)" d="M14.661 9.259c0.29-1.639 0.436-2.458 1.047-2.967s1.451-0.509 3.13-0.509h2.374c1.679 0 2.518 0 2.95 0.509s0.286 1.329-0.004 2.967l-2.361 13.326c-0.29 1.639-0.436 2.458-1.047 2.967s-1.451 0.509-3.13 0.509h-2.374c-1.679 0-2.518 0-2.95-0.509s-0.286-1.329 0.004-2.967l2.361-13.326z"></path>
<path fill="#5685ff" style="fill: var(--color3, #5685ff)" d="M3.027 15.041c0.29-1.639 0.436-2.458 1.047-2.967s1.451-0.509 3.13-0.509h2.374c1.679 0 2.518 0 2.95 0.509s0.286 1.329-0.004 2.967l-1.335 7.532c-0.29 1.639-0.436 2.458-1.047 2.967s-1.451 0.509-3.13 0.509h-2.374c-1.679 0-2.518 0-2.95-0.509s-0.286-1.329 0.004-2.967l1.335-7.532z"></path>
<path fill="#000" style="fill: var(--color4, #000)" opacity="0.2" d="M36.446-2.871c0 14.412-11.683 26.096-26.096 26.096s-26.096-11.684-26.096-26.096c0-14.412 11.683-26.096 26.096-26.096s26.096 11.684 26.096 26.096z"></path>
</symbol>

</defs>
</svg>
